<?xml version="1.0" encoding="utf-8"?>
<!-- Generator: Adobe Illustrator 16.0.0, SVG Export Plug-In . SVG Version: 6.00 Build 0)  -->
<!DOCTYPE svg PUBLIC "-//W3C//DTD SVG 1.1//EN" "http://www.w3.org/Graphics/SVG/1.1/DTD/svg11.dtd">
<svg version="1.1" id="Layer_1" xmlns="http://www.w3.org/2000/svg" xmlns:xlink="http://www.w3.org/1999/xlink" x="0px" y="0px"
	 width="82px" height="82px" viewBox="0 0 82 82" enable-background="new 0 0 82 82" xml:space="preserve">
<path fill-rule="evenodd" clip-rule="evenodd" fill="#48AF4B" d="M24.471,60.468v15.418H6.236
	c-0.353-5.414-0.117-11.299-0.117-16.707c0-15.766-1.766-18.471,6.823-18.471c2.235,0,6.588-0.235,8.589,0
	c4.823,0.823,3.53,7.766,3.53,13.649c-1.53-0.236-4.354-1.646-5.766-2.236c-2.235-0.943-4.588-0.592-4.706,2.115
	c0,2.471,2.471,2.941,4.235,3.77C20.238,58.474,23.414,59.65,24.471,60.468L24.471,60.468z M36.942,16.942
	c0.354,3.058,4.589,2.235,7.533,2.235h19.292c2.943,0,6.826,0.47,6.469-3.175c-0.349-3.06-5.058-2.235-7.644-2.235H43.297
	C40.238,13.767,36.355,13.06,36.942,16.942L36.942,16.942z M63.297,34.708c0.94-0.94,1.881-2,2.586-2.941
	c0.827-1.06,2.473-2,1.881-4.118c-0.471-1.413-1.994-2.353-3.762-1.53c-0.705,0.353-9.533,10.589-10.587,12.354
	c-4.475,0.353-15.061-0.825-16.474,1.058c-0.822,0.825-0.705,2.471-0.117,3.413c1.412,1.883,7.178,0.471,11.882,1.061
	c-0.584,1.41-2.821,2.232-1.768,4.588c0.827,1.998,3.178,1.645,4.475,0.471c5.415-5.529,2.116-5.529,8.35-5.529
	c4.71,0,9.298,0,13.886,0c6.825,0,7.879,1.293,7.879-5.765V3.178c-0.349-2.47-1.881-2.588-4.466-2.588H22
	c-2.235,0-4.471,0-4.705,2.353c-0.235,2.353,1.295,3.058,3.53,3.058c3.765,0.117,52.823-0.235,54.938,0.117
	C76,9.06,76,36.942,75.651,38.002c-0.47,0.588-11.648,0.353-14.947,0.235C60.947,37.178,62.357,35.767,63.297,34.708L63.297,34.708z
	 M13.649,16.708c5.646-1.295,9.999,3.058,10.941,7.411c1.293,5.766-2.942,10.001-7.295,10.941
	C5.414,37.53,0.826,19.53,13.649,16.708L13.649,16.708z M25.766,36.708c0.47-1.058,1.647-1.883,2.353-3.293
	c0.825-1.295,1.295-2.355,1.647-4c3.766-17.647-20.942-26-28.118-9.059c-4,9.529,3.295,15.412,3.647,16.47
	c-6,3.295-4.47,11.883-4.47,19.881c0,3.998,0,8.115,0,12.119c0,14.357-2.001,12.469,11.881,12.469
	c18.942,0,17.412,1.297,17.412-6.818c0-4.004,0-8.123,0-12.24c2.706,0.705,5.059,3.412,7.766,1.176l2.471-2.707
	c0.94-0.941,1.41-1.76,2.468-2.699c2.471-2.596,0-6.594-3.175-4.945c-0.94,0.471-3.411,3.883-5.059,5.293
	c-0.94-0.234-4-1.41-4.471-2.115c0-3.764,0.235-8.352,0-12C29.766,40.12,27.649,38.708,25.766,36.708L25.766,36.708z"/>
<rect x="0" y="0" fill="none" width="81.998" height="81.999"/>
</svg>
