<?xml version="1.0" encoding="utf-8"?>
<!-- Generator: Adobe Illustrator 16.0.0, SVG Export Plug-In . SVG Version: 6.00 Build 0)  -->
<!DOCTYPE svg PUBLIC "-//W3C//DTD SVG 1.1//EN" "http://www.w3.org/Graphics/SVG/1.1/DTD/svg11.dtd">
<svg version="1.1" id="Layer_1" xmlns="http://www.w3.org/2000/svg" xmlns:xlink="http://www.w3.org/1999/xlink" x="0px" y="0px"
	 width="82px" height="82px" viewBox="0 0 82 82" enable-background="new 0 0 82 82" xml:space="preserve">
<rect x="0" y="0" fill="none" width="81.998" height="81.998"/>
<path fill-rule="evenodd" clip-rule="evenodd" fill="#B3C213" d="M39.177,42.59c-2,2.59-7.293,2.468-5.41,4.349
	c2,1.062,4.705-1.289,6.118-1.881c0.234,5.18,0.705,8.123-3.766,10.238c-3.883,1.768-5.766-0.121-5.178,2.821
	c4.235,0.826,7.413-2.116,8.943-2.821v5.764c0,6.59-10.119,6.825-11.296,7.061c-0.354,1.767,0.234,1.881,2.117,1.767
	c1.295,0,2.588-0.356,3.766-0.713c2.94-0.818,3.53-1.759,5.413-2.935v13.06L14.12,79.177V66.119c0.94,0.47,1.41,1.175,2.47,1.767
	c2.354,1.41,6.941,2.821,9.059,1.646l-0.117-1.175c-1.295-0.706-4.94-0.471-7.411-1.881c-4.825-2.708-4-5.528-4-11.179
	c0.94,0.349,1.175,0.818,2.235,1.41c1.527,0.827,7.528,3.178,6.705-0.113c-1.412-0.826-3.765-0.479-6-1.767
	c-3.528-2.237-3.059-4.71-2.94-9.769c1.058,0.471,1.765,1.063,2.94,1.532c2.235,0.819,2.705,0.94,3.295,0.113
	c1.293-1.523-2.235-1.759-3.53-2.466c-2.471-1.295-2-2.707-3.53-3.647c-1.41,0.47-0.94,0.47-1.646,1.647
	c-1.647,2.586-3.647,2.351-5.178,2.942c-1.883,0.818-1.176,2.707,2,1.646c1.766-0.592,2.354-1.297,3.648-1.768v5.415
	c0,5.294-8.119,5.642-8.589,5.999c-1.06,0.592-0.705,1.646,0.705,1.767c3.413,0.349,7.296-2.707,7.884-2.942
	c0.117,5.407,0.822,9.055-4.589,11.527c-3.412,1.532-8.118,0.592-6.588,2.586c0.588,0.592-0.235,0.243,0.822,0.478
	c0.354,0.114,0.471,0.114,0.942,0.114l4.706-0.94c2.471-0.94,3.176-2.003,4.706-2.942v13.181c-2.706,0-9.884-0.706-11.529,0.47
	l0.235,1.289c5.881,0.592,67.408,0.121,78.587,0.121c1.175,0,2.82-0.47,1.532-1.646c-0.827-0.592-8.357,0-11.179-0.356V66.24
	c1.062,0.349,1.297,0.94,2.473,1.646c2.237,1.41,6.825,2.708,9.054,1.646l-0.113-1.175c-2.829-1.411-5.415,0.234-9.298-3.057
	c-2.707-2.358-2.115-5.649-2.115-10.003c2.002,1.054,5.764,3.996,8.941,2.586c0.356-1.881-0.592-1.532-2.237-1.768
	c-1.176-0.234-2.229-0.47-3.292-1.054c-4.117-2.115-3.525-4.709-3.412-10.003c1.297,0.592,4.944,3.178,6.233,1.646
	c1.063-1.523-2.237-1.646-3.647-2.466c-2.465-1.413-1.994-2.825-3.526-3.647c-1.41,0.588-1.768,2.47-3.526,3.529
	c-1.889,1.174-4.831,0.704-3.77,2.819c2.116,1.062,4.475-1.176,6.234-1.881c0,4.24,0.826,6.947-2.229,9.298
	c-4.118,3.057-7.417,0.471-6.712,3.648c3.883,0.939,7.53-2.003,8.941-2.708c0.121,5.059,0.705,8.706-3.762,11.179
	c-2.821,1.523-5.764,0.94-7.174,1.646c-1.532,0.705-0.714,2.82,5.172,1.175c3.299-0.939,3.77-2.002,5.649-3.056l0.114,13.06H42
	V66.119c2.119,1.175,3.293,3.291,9.057,3.769c1.767,0.114,2.473,0.235,2.237-1.531c-1.41-0.827-4.823-0.357-7.409-1.881
	c-4.707-2.594-4.003-5.528-3.885-11.3c1.767,1.062,5.766,4.239,9.057,2.707l-0.235-1.289c-1.41-0.826-3.647-0.479-5.764-1.653
	c-3.763-2.229-3.293-4.823-3.058-9.995c1.18,0.705,4.354,3.056,6.357,1.881c0.705-2.002-2.124-1.646-3.77-2.588
	C42,42.825,42.59,41.413,41.06,40.59C39.53,41.06,40.12,41.531,39.177,42.59L39.177,42.59z M47.061,20.238
	c0.113-0.354,9.054-15.412,10.586-16.707C58.587,5.883,65.535,16.237,67.65,20c-0.356,0.707-2.115,3.295-2.707,3.766
	c-3.291-2.94-2.473-8.354-7.53,0.117c-1.411-1.176-2.352-4-3.997-4.588c-1.889,0.705-2.358,3.295-3.883,4.588L47.061,20.238z
	 M14.354,20.238c0.823-1.883,4.001-6.471,5.176-8.472l5.179-8.235l2.705,4.118c2,3.293,6.235,9.646,7.528,12.352
	c-0.47,0.942-1.883,3.06-2.705,3.766c-1.413-1.176-2-3.648-3.53-4.471c-1.881,0.353-2.823,3.412-4.235,4.588
	c-4.588-8.941-4.823-2.235-7.646-0.117C16.002,22.708,15.06,21.413,14.354,20.238L14.354,20.238z M13.059,22.236
	c3.53,4.118,3.296,6.235,5.884,2.473l1.295-2.001c0.117,0,0.117-0.117,0.234-0.117l0.354-0.354c1.058,1.178,2.353,4,3.883,4.473
	c1.527-0.825,2.47-3.178,3.646-4.473c0.47,0.354,0.117,0,0.59,0.472l1.175,1.764c2.235,3.295,2.471,2.707,4.235,0
	c0.588-0.823,1.178-1.764,1.883-2.354c1.059,1.178,1.766,2.825,2.706,4.236c0.705,0.942,0.942,1.06,0.353,2.117l-4.001,6.471
	c-1.058,1.647-2.588,3.178-1.41,4.471c1.647,0,4.706-5.998,6.118-8.116l5.883-8.941c1.054,1.176,2.237,3.528,3.647,4.354
	c1.646-0.59,2.586-3.295,3.883-4.473c0.471,0.354,0.114,0,0.584,0.472c2.707,3.059,2.237,7.177,7.061-0.59
	c3.178,2.825,2.586,7.414,5.998,2.354c0.471-0.823,1.063-1.764,1.768-2.354c1.062,0.825,10.238,16.473,10.587,16.825
	c0.47,0.47-0.113,0.234,0.592,0.353c3.291,0.47-2.124-6.589-4.24-9.999c-2.002-3.295-3.883-6.471-5.998-9.767
	c-2.002-3.175-3.762-6.235-5.885-9.528C56.707-1.528,58.474-2,53.181,6.471L45.18,19.295c-1.061,1.647-2.942,4.94-4.12,6.353
	c-0.822-0.705-11.294-17.882-12.706-20.47c-4.471-7.413-2.353-7.061-13.765,10.706c-4.353,6.823-8.588,13.765-12.941,20.588
	c-0.353,0.588-1.412,1.883-0.822,2.588c1.058,1.06,1.882-0.47,2.47-1.293c1.058-1.883,2.118-3.413,3.176-5.178L13.059,22.236z"/>
</svg>
