<?xml version="1.0" encoding="utf-8"?>
<!-- Generator: Adobe Illustrator 16.0.0, SVG Export Plug-In . SVG Version: 6.00 Build 0)  -->
<!DOCTYPE svg PUBLIC "-//W3C//DTD SVG 1.1//EN" "http://www.w3.org/Graphics/SVG/1.1/DTD/svg11.dtd">
<svg version="1.1" id="Layer_1" xmlns="http://www.w3.org/2000/svg" xmlns:xlink="http://www.w3.org/1999/xlink" x="0px" y="0px"
	 width="82px" height="82px" viewBox="0 0 82 82" enable-background="new 0 0 82 82" xml:space="preserve">
<path fill-rule="evenodd" clip-rule="evenodd" fill="#FC2D57" d="M48.592,57.534c1.411,1.176,8.472,17.761,9.882,20.825
	c1.994,4.345,7.645,3.761,9.29-0.122c0.939-2.351,0.234-3.647-0.706-5.764l-6.825-16.001c-0.818-1.768-1.523-3.526-2.351-5.415
	c-1.054-2.465-4.701-17.173-3.413-18.82l8.357-6.589c1.524-1.177,2.821-2.234,4.354-3.412c5.998-4.706,1.176-8.469-1.297-8.587
	c-2.237,0-3.883,1.881-5.059,2.706L47.887,26.588c-1.889,1.647-0.948,3.883,1.881,1.53c2.942-2.353,5.642-4.471,8.584-6.706
	c2.829-2.235,7.767-7.411,9.063-4.471c1.054,2.118-1.768,3.648-2.942,4.471c-1.411,1.061-2.943,2.235-4.354,3.413
	c-10.474,8.116-9.533,5.528-6.469,19.884c1.176,5.059,1.881,7.053,3.883,11.405c1.524,3.535,3.17,7.296,4.588,10.83
	c0.94,2.229,4.589,8.941,3.291,10.936c-0.939,1.532-3.647,1.767-4.823-0.349l-7.174-15.88c-0.592-1.297-1.767-4.239-2.472-5.18
	c-1.176-1.646-3.413-2.003-5.294-0.592c-1.412,1.062-2.709,2.472-4.119,3.534c-9.059,7.174-5.764,7.53-14.942,5.764
	c-5.058-0.827-11.764-0.94-9.646-5.294c1.296-2.472,10.002,0.235,12.707,0.584c2.705,0.356,3.766-1.41,5.176-2.586
	c3.883-3.056,6.588-4.823,6.118-8.941c-0.235-1.88-0.94-4.466-1.413-6.351c-1.293-6.354-0.939-6.471-7.293-7.766
	C24,33.177,26.236,34.12,19.06,24.826c-3.058-4-0.47-2.942-1.53-5.178c-2.353-0.588-3.41,2.353-0.822,5.766
	c1.412,2,6.706,9.294,8.471,10.118c1.058,0.588,5.764,1.41,7.294,1.646c4.235,0.825,3.883,0.59,4.705,4.823
	c2.235,10.118,2.942,8.473-2.353,12.939c-2.588,2.358-3.176,3.534-6.001,2.942C24,57.064,16.942,54.469,14.825,59.179
	c-1.176,2.708,0.235,5.528,2.235,6.469c1.412,0.827,5.53,1.297,7.53,1.646c6.352,1.176,8.704,2.708,12.47-0.818
	c0.47-0.356,0.707-0.592,1.177-0.94C40.12,63.881,46.939,57.534,48.592,57.534L48.592,57.534z M46.469,21.178
	c-2.819,7.883-14.585,4-11.997-4.001c0.822-2.705,4-5.176,7.883-4C45.18,14.001,47.887,17.295,46.469,21.178L46.469,21.178z
	 M38.59,10.942c-11.412,2.825-7.059,19.412,4,16.707c3.879-1.061,7.526-5.059,6.237-10.354C47.887,13.294,43.767,9.649,38.59,10.942
	L38.59,10.942z M18.355,3.295c8.116-2.822,11.999,9.294,4.235,11.999C14.708,18.002,10.354,6.119,18.355,3.295L18.355,3.295z
	 M19.413,0.708C8.354,2.119,10.001,19.06,21.648,17.765C32.589,16.589,30.824-0.705,19.413,0.708L19.413,0.708z"/>
<rect x="0" y="0" fill="none" width="81.998" height="81.998"/>
</svg>
