<?xml version="1.0" encoding="utf-8"?>
<!-- Generator: Adobe Illustrator 16.0.0, SVG Export Plug-In . SVG Version: 6.00 Build 0)  -->
<!DOCTYPE svg PUBLIC "-//W3C//DTD SVG 1.1//EN" "http://www.w3.org/Graphics/SVG/1.1/DTD/svg11.dtd">
<svg version="1.1" id="Layer_1" xmlns="http://www.w3.org/2000/svg" xmlns:xlink="http://www.w3.org/1999/xlink" x="0px" y="0px"
	 width="82px" height="82px" viewBox="0 0 82 82" enable-background="new 0 0 82 82" xml:space="preserve">
<path fill-rule="evenodd" clip-rule="evenodd" fill="#9724FC" d="M25.061,73.763c-0.235-1.289,0.94-11.057,1.293-12.582
	c0.942-3.412,3.647-6.24,6.823-7.295c2-0.592,4.59,3.178,11.532,1.523c1.881-0.582,4.467-3.762,9.055,1.654
	c2.473,2.699,2.586,6.234,3.178,10.586c0.235,1.055,0.356,2.117,0.471,3.178c0.121,1.176,0.592,2.352-0.349,2.936
	c-0.471,0.242-5.066,0.947-5.886,1.063C42.472,75.886,33.177,75.531,25.061,73.763L25.061,73.763z M71.533,43.65
	c-1.297-4.237,4.938-5.177,5.764-1.649C78.35,46.119,72.473,47.294,71.533,43.65L71.533,43.65z M67.293,40.825
	c-1.646,0-3.412,0-5.172,0c-1.889,0-3.412,0-3.412,2c0,2.822,4.466,1.648,8.819,1.883c0.705,0.939,2.358,5.764,8.001,4.941
	c8.001-1.412,7.652-12.942-0.235-13.765C69.295,35.177,68.234,40.238,67.293,40.825L67.293,40.825z M44.002,10.472
	c-1.412,3.766-7.178,1.883-5.766-2.118C39.413,4.707,45.293,6.707,44.002,10.472L44.002,10.472z M39.06,16.237
	c0.235,4.471-0.823,8.824,1.883,8.941c3.06,0.117,1.88-4.353,2.115-8.941c8.12-3.295,5.413-13.766-2.115-13.766
	c-3.647,0-6.471,2.708-6.941,6C33.415,12.707,36.237,15.06,39.06,16.237L39.06,16.237z M16.825,16.355
	c3.883-0.942,5.293,4.94,1.53,5.881C14.354,23.178,12.825,17.413,16.825,16.355L16.825,16.355z M23.883,22.708
	c0.47-3.295,1.53-4.235-0.588-7.53c-1.178-1.646-3.647-3.293-6.823-2.823c-5.413,0.823-8.001,7.293-4.118,11.646
	c1.413,1.647,4.001,2.825,6.941,2.118c2.235-0.705,1.177-1.175,5.413,3.178c0.587,0.588,1.527,1.883,2.94,1.646
	c1.412-0.353,2-2,1.058-3.293L23.883,22.708z M4.826,43.65c-1.178-4.12,4.823-5.413,5.881-1.767
	C11.766,46.119,5.883,47.294,4.826,43.65L4.826,43.65z M14.354,45.06c2.706-0.234,8.824,1.059,9.06-2.117c0-1.882-1.53-2-3.413-2
	c-1.763,0-3.764,0.118-5.646,0c-4-8.941-13.764-4.588-13.764,2.117c0.117,3.646,2.705,6.354,5.881,6.824
	C10.354,50.589,13.532,48.003,14.354,45.06L14.354,45.06z M64.002,16.355c3.762-1.06,5.172,4.94,1.41,5.881
	C61.295,23.178,60.12,17.413,64.002,16.355L64.002,16.355z M58.352,22.826c-1.054,0.705-2.472,2.353-3.412,3.293
	c-0.819,0.708-3.291,2.471-1.41,4.236c1.767,1.647,3.534-0.588,4.353-1.413c1.062-1.058,2.473-2.353,3.299-3.411
	c2.586,0.587,5.764,2,8.941-1.883c5.293-6.471-3.412-14.942-9.654-9.999c-1.176,0.823-2.116,1.881-2.586,3.646
	C57.064,20,58.004,20.708,58.352,22.826L58.352,22.826z M38.943,34.12c11.061-2.94,15.997,14.237,4.354,17.409
	C32.001,54.47,27.178,37.178,38.943,34.12L38.943,34.12z M30.471,50.472c-0.822,0.822-4.588,2.002-7.176,7.41
	c-1.53,2.943-1.883,8.594-2.353,12.24c-0.705,6.234,0.353,7.053,5.883,8.115c8.116,1.645,19.173,1.645,27.174,0.234
	c5.528-1.063,7.766-1.41,6.947-7.879c-0.592-4.475-0.479-8.592-2.003-12.588C58.118,55.88,55.88,53.294,54,52.003
	c-0.705-0.592-1.646-0.943-2.351-1.531c0.235-1.176,4.701-6.704,0.705-13.882c-1.881-3.413-5.65-6.706-11.411-6.588
	c-5.53,0-9.294,3.293-11.294,6.706c-1.06,2-1.766,4.588-1.53,7.179C28.471,47.294,29.414,48.121,30.471,50.472L30.471,50.472z"/>
<rect x="0" y="0" fill="none" width="81.998" height="81.999"/>
</svg>
