<?xml version="1.0" encoding="utf-8"?>
<!-- Generator: Adobe Illustrator 16.0.0, SVG Export Plug-In . SVG Version: 6.00 Build 0)  -->
<!DOCTYPE svg PUBLIC "-//W3C//DTD SVG 1.1//EN" "http://www.w3.org/Graphics/SVG/1.1/DTD/svg11.dtd">
<svg version="1.1" id="Layer_1" xmlns="http://www.w3.org/2000/svg" xmlns:xlink="http://www.w3.org/1999/xlink" x="0px" y="0px"
	 width="82px" height="82px" viewBox="0 0 82 82" enable-background="new 0 0 82 82" xml:space="preserve">
<path fill-rule="evenodd" clip-rule="evenodd" fill="#38AFAB" d="M37.767,54.357c1.176,0.113,1.881,0.471,3.176,0.471
	c1.175,0,2.115-0.357,3.177-0.357l0.355,1.176c-0.473,0.705-2.944,3.178-3.532,3.533c-0.94-0.469-1.53-1.297-2.353-2.115
	C37.413,55.88,37.295,56.351,37.767,54.357L37.767,54.357z M6.941,67.416h2.473v-2.473H7.061L6.941,67.416z M72.473,67.416h2.586
	l-0.113-2.473h-2.473V67.416z M57.298,53.531h2.586V51.06h-2.586V53.531z M22,53.531h2.59V51.06H22V53.531z M30.942,81.294h2.473
	v-7.41l-2.591-0.121L30.942,81.294z M48.592,81.294h2.465v-7.531h-2.586L48.592,81.294z M32.001,22.118l0.118,5.061h2.47
	l0.118-5.648c0-2.47-0.94-2-5.059-2c1.293-2.235,10.354-13.881,11.176-15.412c0.588,0.353,1.058,1.177,1.53,1.765l9.886,13.646
	c-4.945,0.118-5.302-1.528-4.945,7.531l2.473,0.118v-5.061c1.881,0,4.588,0.118,5.999-0.353c0.583-1.528-0.122-1.882-0.94-3.058
	L44.353,4.354c-2.588-3.528-3.175-5.058-4.94-2.353c-2.823,3.883-5.646,7.531-8.471,11.412c-1.293,1.882-2.823,4-4.233,5.765
	C23.766,23.061,29.061,22.001,32.001,22.118L32.001,22.118z M0.826,39.295c1.41,0.825,4,0.353,6.115,0.47v22.591
	c3.178,0.236,2.591,0.471,2.591-4.475L9.414,39.766h6.233v-2.47L4.588,37.178c0.59-1.058,1.883-2.823,2.59-3.883l5.764-7.764
	c0.825-1.178,1.766-2.823,2.942-3.766c0.471,0.942,10.234,13.767,11.06,15.412l-4.471,0.118c-0.708,1.53-0.708,8.706-0.355,11.062
	c1.53,0.352,0.825,0.234,2.354,0.117l0.119-8.708c2.118-0.235,4.588,0.354,6.116-0.47c0.353-1.765-1.528-3.646-3.058-5.646
	L18.12,20.59c-2.473-3.295-2.59-2.708-4.471-0.235c-3.06,4.116-6.825,9.529-9.766,13.176C3.178,34.472,2.708,35.295,2,36.237
	C1.295,37.178,0.473,37.648,0.826,39.295L0.826,39.295z M57.298,39.885l0.114,8.589h2.351c0.235-1.768,0.235-9.531-0.113-10.944
	c-1.176-0.588-2.943-0.235-4.589-0.353l11.058-15.294c0.705,0.472,4.822,6.353,5.649,7.531l4.118,5.646
	c0.47,0.589,1.176,1.295,1.41,2.118l-10.943,0.118c-1.175,3.765,2.003,2.235,6.12,2.47v22.591h2.473
	c0.235-2.357,0.113-18.824,0.113-22.591c2.708,0,8.001,0.59,5.65-2.588L69.887,22.473c-4.239-6-3.177-5.883-9.298,2.47
	l-8.592,11.882C48.707,41.061,54.94,39.295,57.298,39.885L57.298,39.885z M34.708,43.533c1.529-0.942,1.412,0.117,3.647-2.59h5.295
	c1.408,2.235,1.408,1.295,3.524,2.59C48.592,55.175,33.415,55.296,34.708,43.533L34.708,43.533z M34.708,40.708
	c-0.235-5.176-0.706-6.118,3.647-7.059c2.94-0.59,9.055-0.354,8.94,3.411v3.648c-2.002-0.353-0.592-1.178-1.88-2
	c-0.827-0.587-8.003-0.353-9.179,0C35.767,39.885,36.237,40.238,34.708,40.708L34.708,40.708z M26.944,81.179l0.117-0.355V80.71
	c0-0.123,0-0.123,0.117-0.236c0-0.234,0-0.826,0-1.061V65.3c0-4.354,0.353-4.119,2.823-5.301c1.295-0.584,4.471-2.117,5.647-2.352
	l3.764,3.77c0.707,1.053,0,5.641,0.353,7.287h2.353c0.237-1.76-0.353-6.234,0.354-7.287c0.351-0.471,3.178-3.178,3.883-3.77
	c1.176,0.234,2.708,1.176,3.997,1.645c5.528,2.238,4.475,1.654,4.475,12.947c0,1.879,0,3.76,0,5.641c0,0.479-0.122,2.473,0,2.83
	c0.234,1.053,2.237,0.469,2.237,0.469c0.818-0.469,0.349-4.238,0.349-5.293V64.351c0-2.586-0.235-2.586-1.298-4.588
	c-0.47-0.939-0.348-0.818-1.41-1.289c-1.523-0.705-7.409-2.828-7.879-3.77C46.469,54,46.355,53.181,46.59,52.71
	c0.349-0.707,0.819-0.828,1.297-1.533c2.586-3.291,1.881-8.587,1.881-12.94c0-2.825,1.054-5.178-4.588-6.823
	c-3.18-0.942-7.178-0.707-9.886,0.588c-4.115,2-3.175,2.353-3.175,8.471c0,4.001-0.354,7.296,1.529,10.234
	c0.94,1.414,2.235,1.65,1.646,3.293c-0.353,1.297-0.234,1.063-1.293,1.533l-6.118,2.586c-2,0.826-2,1.174-2.822,3.063
	c-0.708,1.525-0.471,13.529-0.471,16.936c0,0.355,0,2.594,0.118,2.707C24.826,81.529,26.354,81.416,26.944,81.179L26.944,81.179z"/>
<rect x="0" y="0" fill="none" width="81.998" height="81.999"/>
</svg>
