<?xml version="1.0" encoding="utf-8"?>
<!-- Generator: Adobe Illustrator 16.0.0, SVG Export Plug-In . SVG Version: 6.00 Build 0)  -->
<!DOCTYPE svg PUBLIC "-//W3C//DTD SVG 1.1//EN" "http://www.w3.org/Graphics/SVG/1.1/DTD/svg11.dtd">
<svg version="1.1" id="Layer_1" xmlns="http://www.w3.org/2000/svg" xmlns:xlink="http://www.w3.org/1999/xlink" x="0px" y="0px"
	 width="82px" height="82px" viewBox="0 0 82 82" enable-background="new 0 0 82 82" xml:space="preserve">
<rect fill="none" width="82" height="82"/>
<g>
	<path fill-rule="evenodd" clip-rule="evenodd" fill="#0DBF8A" d="M39.403,20.794c4.135-0.354,8.625,0.708,12.053,2.835
		c1.535,0.947,3.664,2.599,4.727,4.018c0.944,1.181,1.771,2.245,2.483,3.664c1.298,2.598,2.007,4.49,2.243,7.678
		c1.18,11.346-7.918,20.917-18.197,21.625c-4.372,0.358-8.508-0.59-12.054-2.833c-5.435-3.428-8.98-8.862-9.57-15.363
		c-0.354-4.136,0.708-8.858,2.835-12.17c1.891-2.835,4.61-5.67,7.802-7.208C34.204,21.856,36.211,21.03,39.403,20.794L39.403,20.794
		z M40.706,11.459c-2.129,0.59-1.185,3.544,0.708,3.071C43.42,14.059,42.712,10.867,40.706,11.459L40.706,11.459z M24.633,62.625
		c-2.127,0.472-1.418,3.428,0.59,3.073c0.827-0.236,1.417-0.948,1.181-1.893C26.286,63.097,25.578,62.389,24.633,62.625
		L24.633,62.625z M52.873,6.731c-0.709,0.238-0.944,0.592-1.653,1.301c-0.354,0.354-2.011,1.891-2.247,2.245
		c-0.472,1.301,0.591,2.481,1.894,2.127c0.59-0.118,1.181-0.944,1.652-1.3c0.354-0.354,1.894-1.889,2.129-2.245
		c0.118-0.354,0.118-0.827,0-1.181C54.412,6.969,53.699,6.495,52.873,6.731L52.873,6.731z M28.533,6.613
		c-0.71,0.238-1.3,0.828-1.183,1.655c0,0.828,0.827,1.418,1.183,1.773c0.59,0.472,0.945,0.944,1.535,1.418
		c0.354,0.472,0.826,1.299,1.893,1.063c0.708-0.236,1.295-0.826,1.181-1.773c0-0.826-2.011-2.481-2.719-3.189
		C30.068,7.206,29.596,6.495,28.533,6.613L28.533,6.613z M40.583,1.061c-1.535,0.118-1.063,2.835-1.063,4.372
		c0,0.708-0.118,2.009,0,2.717c0.236,1.655,2.718,1.655,3.073,0.118c0.118-0.472,0-4.727,0-5.553c0-0.475,0-0.71-0.236-1.064
		c-0.235-0.236-0.471-0.59-0.826-0.59S40.942,1.061,40.583,1.061L40.583,1.061z M32.547,51.516c0.831-1.535,1.657-2.598,3.191-3.542
		c3.31-2.129,7.328-2.129,10.519,0c1.652,0.944,2.361,2.007,3.306,3.542c-2.243,1.656-4.963,2.955-8.504,2.955
		C37.514,54.471,35.148,53.29,32.547,51.516L32.547,51.516z M40.233,35.565c1.417-0.477,3.069,0.354,3.66,1.653
		c0.708,1.185,0.59,3.427,0,4.372c-0.473,0.709-1.181,1.299-2.006,1.535c-3.664,0.83-5.081-3.428-3.664-6.025
		C38.577,36.273,39.285,35.801,40.233,35.565L40.233,35.565z M30.304,49.154h-0.118c0,0,0,0,0-0.118l0,0c-0.118,0-0.118,0-0.118,0
		c0-0.118,0-0.118-0.118-0.236c0-0.118-0.236-0.236-0.236-0.354c-2.953-4.018-3.191-9.692-0.826-14.179
		c0.944-1.893,2.837-4.02,4.608-5.083c4.963-2.956,10.279-2.956,15.124,0c1.18,0.827,1.774,1.535,2.601,2.245
		c0.473,0.472,1.653,2.129,2.007,2.952c2.13,4.258,2.13,9.221-0.472,13.475c-0.118,0.236-0.236,0.472-0.473,0.708
		c-0.118,0.118-0.118,0.236-0.235,0.354l-0.236,0.236c-0.236-0.473-0.826-1.181-1.181-1.535c-1.539-2.011-4.254-3.073-4.727-3.428
		c0.354-0.59,0.708-0.944,0.944-1.539c0.236-0.59,0.473-1.298,0.591-2.007c1.063-9.216-9.57-10.871-12.29-4.372
		c-0.59,1.181-0.708,2.951-0.472,4.372c0.118,1.535,0.827,2.479,1.421,3.546c-0.358,0.354-1.303,0.591-1.775,0.944
		C33.02,45.963,30.895,47.737,30.304,49.154L30.304,49.154z M24.159,41.944c0.474,5.081,3.074,9.217,5.555,11.346
		c0.354,0.118,0.354,0.236,0.59,0.473c3.664,2.719,7.087,4.136,12.053,3.781c8.744-0.59,16.309-8.508,15.478-18.083
		c-0.118-2.361-0.826-4.722-1.889-6.615c-0.826-1.653-2.247-3.544-3.664-4.727c-3.546-2.954-7.563-4.608-12.525-4.254
		c-4.132,0.354-8.626,2.481-11.224,5.555c-0.71,0.826-1.3,1.417-1.893,2.481C24.87,34.975,23.923,38.167,24.159,41.944
		L24.159,41.944z M66.815,34.617c1.066-0.236,2.247,0.122,2.956,0.708c0.708,0.712,1.181,1.185,1.298,2.483
		c0.473,6.619-6.497,5.911-6.851,1.652C63.982,36.982,64.69,35.211,66.815,34.617L66.815,34.617z M13.644,34.617
		c1.889-0.472,4.016,0.831,4.254,3.192c0.118,1.652,0,3.191-1.418,4.254c-0.354,0.236-0.708,0.473-1.301,0.59
		c-2.127,0.473-4.018-1.18-4.136-3.191C10.807,37.218,11.399,35.325,13.644,34.617L13.644,34.617z M7.027,80.821
		c0.354,0,0.472,0.118,0.826,0.118c0.354,0,0.473-0.118,0.827-0.118c1.537,0.118,3.31-1.416,3.9-2.125l8.98-8.98
		c0.472-0.476,1.064-1.185,0.472-2.129c-0.236-0.59-1.181-1.063-2.009-0.708c-0.708,0.354-8.152,8.036-9.098,8.98
		c-0.708,0.708-2.009,2.597-4.016,1.771c-1.655-0.59-2.245-2.361-1.418-3.782c0.354-0.826,4.844-5.198,5.909-6.143L21.914,57.19
		c0.356-0.354,1.183-1.067,1.419-1.539c0.354,0.236,1.3,1.421,2.127,2.129l1.181,0.944c0.356,0.354,0.71,0.591,1.064,0.944
		c11.461,7.918,26.942,4.019,33.558-7.8c1.063-1.889,1.771-3.777,2.365-6.024c1.653-0.118,3.9,0,5.671,0
		c2.007,0,3.191-0.118,4.845,0.826c1.181,0.59,2.365,1.656,2.955,2.837c0.826,1.653,0.826,2.838,0.826,4.845
		c-1.893,0-14.65-0.118-15.245,0.118c-0.826,0.236-1.417,1.534-0.591,2.483c0.709,0.708,2.012,0.472,3.311,0.472
		c2.482,0,5.08,0,7.682,0c8.153,0,7.918,0.827,7.918-3.428c0-1.298,0-2.365-0.236-3.545c-0.83-3.9-3.9-6.615-7.682-7.564
		c0.944-1.181,1.181-3.306,1.063-5.198c-0.236-4.962-5.316-7.562-9.217-5.671c-0.944,0.472-1.299,0.827-1.893,1.303
		c-0.236-0.358-0.591-1.303-0.709-1.657c-0.944-2.245-1.416-2.717-2.597-4.608l-1.657-1.891c-0.118-0.236-0.354-0.354-0.59-0.59
		c-0.591-0.829-1.535-1.537-2.361-2.245c-8.154-6.381-20.089-6.381-28.124,0c-0.71,0.59-1.891,1.652-2.481,2.245
		c-0.238,0.236-0.356,0.354-0.592,0.59c-0.945,0.827-2.835,3.662-3.426,4.845c-0.354,0.708-1.183,2.953-1.419,3.312
		c-1.181-1.185-2.835-1.893-4.608-1.893c-3.427,0-6.381,2.602-6.617,6.261c-0.118,1.893,0.118,4.018,1.183,5.198
		c-1.537,0.358-2.837,0.949-3.9,1.775c-1.064,0.826-1.891,1.652-2.717,2.955c-0.71,1.181-1.183,2.716-1.301,4.368
		C1,52.817,1,53.763,1,54.707c0,3.31,0.59,2.719,5.67,2.719c0.947,0,1.891,0,2.837,0c0.945,0,1.653,0.236,2.245-0.354
		c0.59-0.591,0.708-1.421,0.118-2.13c-0.472-0.59-1.183-0.59-2.245-0.59c-1.773,0-3.664,0-5.437,0c0-2.007-0.118-3.191,0.829-4.845
		c0.59-1.181,1.652-2.247,2.835-2.837c1.773-0.944,2.835-0.826,4.962-0.826c1.655,0,4.018-0.118,5.673,0
		c0.472,1.774,1.891,6.143,3.072,7.209c-0.236,0.354-5.789,5.789-6.617,6.615l-3.19,3.31c-1.064,1.063-2.127,2.125-3.191,3.191
		c-1.181,1.181-2.245,2.243-3.308,3.306c-0.946,0.949-2.363,2.012-2.956,3.664c-0.708,2.247,0,4.963,1.419,6.147
		c0.354,0.354,0.59,0.472,0.946,0.826C5.254,80.468,6.316,80.939,7.027,80.821L7.027,80.821z"/>
</g>
</svg>
