<?xml version="1.0" encoding="utf-8"?>
<!-- Generator: Adobe Illustrator 16.0.0, SVG Export Plug-In . SVG Version: 6.00 Build 0)  -->
<!DOCTYPE svg PUBLIC "-//W3C//DTD SVG 1.1//EN" "http://www.w3.org/Graphics/SVG/1.1/DTD/svg11.dtd">
<svg version="1.1" id="Layer_1" xmlns="http://www.w3.org/2000/svg" xmlns:xlink="http://www.w3.org/1999/xlink" x="0px" y="0px"
	 width="82px" height="82px" viewBox="0 0 82 82" enable-background="new 0 0 82 82" xml:space="preserve">
<rect fill="none" width="82" height="82"/>
<g>
	<path fill-rule="evenodd" clip-rule="evenodd" fill="#FF9800" d="M35.862,57.81c1.888-0.944,3.894,0.83,2.36,3.309
		c-0.708,1.298-2.01,3.662-3.072,4.134c-1.892,0.944-3.78-1.062-2.478-3.308c0.472-0.826,0.944-1.416,1.534-2.242
		C35.032,58.399,34.914,58.282,35.862,57.81L35.862,57.81z M31.37,52.142c1.302-0.354,2.836,0.354,3.19,1.18
		c1.066,2.364-4.016,8.15-4.724,8.505c-1.536,0.708-4.96-0.708-2.48-4.606C28.418,55.686,30.072,52.613,31.37,52.142L31.37,52.142z
		 M27.71,45.883c1.3-0.236,2.834,0.826,2.716,2.36c0,1.298-1.18,2.954-1.774,3.78c-2.124,2.836-4.25,8.15-7.084,5.433
		c-2.008-1.771-0.118-4.135,1.064-5.669C23.93,50.018,25.348,46.237,27.71,45.883L27.71,45.883z M19.913,45.646
		c1.89-0.83,3.663,0.826,2.126,3.305c-0.59,0.948-2.008,3.309-2.834,3.662c-1.062,0.472-2.008-0.236-2.362-0.826
		C15.781,49.899,19.559,45.765,19.913,45.646L19.913,45.646z M36.448,24.147c4.02-1.77,21.852,0.118,24.569,1.3
		c0.59,0.236,0.59,0.354,0.944,0.944l6.734,11.813c0.826,1.298,1.888,2.954,2.478,4.252c-0.472,0.59-2.478,2.832-3.422,3.189
		c-1.302,0.473-2.954-1.302-4.017-2.01c-2.6-1.888-4.842-3.544-7.442-5.314l-7.561-5.318c-2.95-1.768-5.786-4.25-8.622-4.13
		c-1.889,0.708-1.889,0.826-3.068,2.006c-1.656,1.774-2.6,3.426-5.55,4.964c-1.42,0.708-2.6,0.822-4.019,0.114
		C26.646,33.004,33.022,24.266,36.448,24.147L36.448,24.147z M40.583,30.88c1.892,0.118,4.846,2.246,6.262,3.19
		c4.96,3.068,11.572,7.914,16.655,11.459c1.18,0.826,1.77,1.298,2.714,2.124c2.601,2.246,0.59,5.196-1.771,4.96
		c-1.892-0.118-12.757-8.15-13.7-8.269c-1.066-0.118-2.129,0.826-0.236,2.011l5.078,3.304c2.715,1.774,6.259,3.19,5.196,5.908
		c-0.708,1.652-2.481,0.944-3.78,0.236l-7.206-4.252c-0.944-0.591-2.597-2.011-3.895-1.534c-0.83,1.534,0.708,1.77,2.006,2.596
		c1.063,0.59,2.011,1.18,3.19,1.893c1.534,1.062,5.669,2.359,4.488,4.96c-1.18,2.714-5.078-0.236-6.616-1.066
		c-1.534-0.708-5.078-3.304-6.73-2.95l-0.118,1.299c1.063,0.708,2.832,1.534,4.135,2.364c1.18,0.708,3.54,1.416,3.186,3.067
		c-0.59,3.545-7.438,0.354-9.444-0.118c0.586-1.651,1.18-2.832,0.114-4.488c-0.708-1.062-1.889-1.77-3.541-2.006
		c0.236-1.892-0.122-2.954-1.184-4.016c-1.18-1.181-1.652-1.063-3.308-1.652c0.236-1.42,0.708-2.011-0.114-3.544
		c-1.42-2.482-5.319-3.898-7.443-0.591l-0.828-0.83c-0.708-0.708-1.772-1.416-2.952-1.416c-1.89,0-2.598,1.181-3.426,2.246
		c-1.062-0.235-3.66-2.836-4.724-3.78c-0.59-0.472-0.708-0.472-1.298-1.062c0.236-0.944,7.441-13.703,9.213-16.54l0.708-0.944
		c1.064,0.708,2.598,1.654,3.78,2.48l4.252,1.418c-1.182,1.89-2.601,3.542-3.544,6.024c-2.362,6.494,6.141,6.966,12.049-0.594
		C38.577,31.826,38.93,30.998,40.583,30.88L40.583,30.88z M61.844,19.659c0.708-1.652,2.836-2.834,4.725-1.298
		c0.708,0.59,2.128,3.188,2.836,4.37c0.826,1.534,4.96,8.148,5.196,9.331c0.826,0.828,2.128,3.424,2.718,4.49
		c0.826,1.534,2.479,3.186,1.534,5.314c-0.59,1.417-3.426,2.479-4.96,0.944C72.83,41.984,64.68,27.456,63.146,24.74
		C62.315,23.204,60.899,21.431,61.844,19.659L61.844,19.659z M16.135,16.825c1.772-0.826,6.142,1.064,3.542,5.314
		c-1.89,2.955-10.275,19.255-12.401,20.082c-2.008,0.826-6.143-0.944-3.662-5.196c1.418-2.364,2.716-4.37,4.134-6.853l5.906-10.277
		C14.481,18.479,14.717,17.533,16.135,16.825L16.135,16.825z M60.191,23.439c-6.971-1.18-22.799-4.488-28.463,0.944
		c-0.83,0.828-0.712,1.182-2.364,0.946c-2.126-0.472-3.544-0.946-5.198-2.126c-3.66-2.598-0.944-1.3-2.008-4.96
		c-0.472-1.772-1.77-2.954-3.66-3.426c-4.488-1.298-6.142,3.662-7.796,6.378c-1.89,3.07-3.66,6.143-5.433,9.331
		c-1.772,3.308-4.96,7.207-4.134,10.161c0.59,1.652,2.126,3.068,3.898,3.54c2.244,0.59,4.134-0.826,4.96-1.888
		c1.3,0.826,4.488,4.252,6.143,4.96c-0.592,1.416-2.244,2.954-1.3,4.961c0.708,1.298,1.89,2.246,3.898,2.481
		c-0.354,3.658,2.834,5.904,5.55,5.196c0.592,0.708,1.3,4.606,6.024,3.898c0.236,1.771,2.128,3.78,4.37,3.54
		c2.242-0.235,3.19-2.714,4.252-3.658c1.538,0.354,12.048,5.314,12.403-1.773c1.77,0.59,2.954,1.062,4.606-0.118
		c1.062-0.708,1.77-1.771,1.77-3.662c3.19,0.712,4.843-0.826,5.196-3.776c2.364,0.236,4.135,0.354,5.437-1.303
		c1.063-1.533,1.063-3.897,0.118-5.668c1.771-1.062,2.95-1.771,4.017-3.19c2.242,3.309,10.629,0.354,8.028-5.786
		c-0.708-1.652-2.124-3.898-3.068-5.437c-1.774-3.068-8.387-15.115-9.685-16.179c-2.01-1.536-4.729-0.944-6.498,0.472
		C59.247,18.951,59.483,20.487,60.191,23.439L60.191,23.439z"/>
</g>
</svg>
