<?xml version="1.0" encoding="utf-8"?>
<!-- Generator: Adobe Illustrator 16.0.0, SVG Export Plug-In . SVG Version: 6.00 Build 0)  -->
<!DOCTYPE svg PUBLIC "-//W3C//DTD SVG 1.1//EN" "http://www.w3.org/Graphics/SVG/1.1/DTD/svg11.dtd">
<svg version="1.1" id="Layer_1" xmlns="http://www.w3.org/2000/svg" xmlns:xlink="http://www.w3.org/1999/xlink" x="0px" y="0px"
	 width="82px" height="82px" viewBox="0 0 82 82" enable-background="new 0 0 82 82" xml:space="preserve">
<rect fill="none" width="82" height="82"/>
<g>
	<path fill-rule="evenodd" clip-rule="evenodd" fill="#9724FC" d="M53.772,57.286c0.477,0.118,2.836,0.944,3.19,1.298
		c-0.354,0.354-0.826,0.826-1.298,1.181c-1.063,0.825-2.954,2.363-4.252,2.718L53.772,57.286z M12.086,63.426
		c-0.59-0.59-1.064-1.416-1.536-2.124C0.276,45.829,3.228,25.87,16.573,13.825c2.362-2.126,5.55-4.251,8.268-5.552
		c8.976-4.37,15.828-3.424,16.889-3.897c1.179-0.59,1.887-3.424-1.656-3.306c-8.503,0.236-15.233,2.834-21.138,6.614
		c-2.362,1.536-2.952,2.244-4.842,3.78c-0.472,0.354-0.472,0.472-0.946,0.944c-0.472,0.59-1.18,1.064-1.652,1.654
		c-2.718,3.306-3.426,3.898-5.788,8.03c-5.552,9.921-6.26,22.913-1.772,34.012c1.772,4.487,4.724,8.503,4.842,8.857
		c-1.18-0.236-3.542-1.298-4.488-0.826c-0.944,0.472-1.888,2.6,0.592,3.308c9.093,2.719,8.739,2.954,10.391-2.718
		c0.236-0.943,1.064-3.539,1.182-4.369c0.118-1.771-2.244-2.36-3.072-1.181C12.793,60.118,12.558,62.246,12.086,63.426
		L12.086,63.426z M71.016,14.533c1.303,0,3.662,0.59,4.606-0.236c1.184-1.064,0.472-2.834-1.063-2.952
		c-1.534-0.238-3.308-0.238-4.842-0.356c-1.651-0.118-3.426-0.354-4.252,0.71c-0.825,0.826-0.708,2.834-0.825,4.37
		c0,0.826-0.354,4.134-0.118,4.841c0.354,1.298,2.359,1.536,3.071,0.354c0.354-0.708,0.354-3.543,0.473-4.605
		c0.472,0.118,2.714,3.188,3.186,3.898c1.184,1.771,1.538,2.362,2.481,4.37c5.55,10.865,4.724,23.974-0.943,34.13
		c-0.826,1.533-1.893,2.953-2.836,4.251c-0.236,0.354-0.472,0.708-0.826,1.063c-0.236,0.354-0.472,0.59-0.826,0.948l-1.655,1.651
		c-11.1,11.1-23.383,10.155-24.68,10.745c-1.185,0.591-2.128,3.544,1.887,3.19c8.268-0.59,15.591-3.662,20.787-7.56
		c3.544-2.714,4.487-3.78,7.201-6.966c1.892-2.128,4.252-5.908,5.554-8.739c3.186-7.206,4.605-15.237,2.832-23.977
		c-1.416-7.912-4.252-12.753-8.857-18.659L71.016,14.533z M25.903,58.584c0.118-0.118,0.118-0.118,0.354-0.235l1.3-0.473
		c0.59-0.235,1.06-0.472,1.654-0.59l2.36,5.196C30.155,62.01,26.611,59.41,25.903,58.584L25.903,58.584z M42.909,55.513
		c1.416-0.118,7.088,0.472,8.032,1.065c-0.354,1.534-1.774,4.248-2.482,5.55c-1.062,2.124-0.943,1.888-2.006,2.124
		c-0.943,0.236-2.718,0.59-3.544,0.472V55.513z M32.042,56.578c1.066-0.594,6.498-1.065,8.031-1.184v9.329
		c-1.298,0-2.481-0.235-3.662-0.472c-1.18-0.236-0.708,0.118-1.888-2.124C33.935,61.066,32.278,57.759,32.042,56.578L32.042,56.578z
		 M31.099,53.86c-0.708-1.651-1.888-8.268-1.652-10.037h10.627v8.857C36.648,52.917,34.17,53.271,31.099,53.86L31.099,53.86z
		 M54.603,54.568c0.354-1.651,0.944-3.308,1.181-5.195c0.354-1.771,0.354-3.898,0.59-5.55h7.441
		c0.236,1.651-0.948,5.668-1.538,7.083c-0.59,1.421-2.242,4.606-3.186,5.314L54.603,54.568z M42.909,43.823h10.628
		c0.235,2.124-0.944,7.909-1.652,10.037c-1.298-0.235-2.836-0.59-4.252-0.826c-1.298-0.117-3.543-0.117-4.724-0.472V43.823z
		 M27.203,49.608c0.354,1.771,0.708,3.19,1.18,4.96l-4.488,1.652c-0.944-0.826-2.598-3.776-3.188-5.432
		c-0.828-1.771-1.654-4.842-1.654-6.966c0.236,0,7.322-0.236,7.439,0.118C26.611,44.177,27.085,48.547,27.203,49.608L27.203,49.608z
		 M42.909,32.012c1.652,0,3.19-0.236,4.724-0.354c1.416-0.236,3.072-0.71,4.37-0.828c0.708,3.542,1.416,6.259,1.534,10.157H42.909
		V32.012z M29.447,40.987c0-4.724,0.826-6.144,1.534-10.157c1.534,0.238,2.954,0.592,4.488,0.828
		c1.538,0.118,3.072,0.354,4.605,0.354v8.976H29.447z M19.053,40.987c0.118-2.596,0.708-4.96,1.654-7.088
		c1.298-3.306,2.598-4.485,3.07-5.432l4.606,1.772c-0.354,1.654-0.944,3.31-1.18,5.076c-0.354,1.656-0.592,3.784-0.592,5.554
		C25.785,41.105,20.353,40.987,19.053,40.987L19.053,40.987z M59.091,28.468c2.478,2.6,4.487,7.678,4.842,12.52l-7.56-0.118
		c-0.118-4.842-0.944-6.611-1.771-10.747L59.091,28.468z M42.909,19.964c0.944-0.118,2.718,0.238,3.662,0.474
		c1.18,0.236,0.708,0,1.888,2.126c0.826,1.298,2.128,4.014,2.482,5.667c-1.42,0.354-6.616,1.182-8.032,0.946V19.964z M32.042,28.232
		c0.236-1.416,1.774-4.37,2.482-5.667c1.18-2.126,0.826-1.89,2.01-2.126c1.18-0.236,2.242-0.474,3.54-0.474v9.332
		C36.884,29.178,34.878,28.704,32.042,28.232L32.042,28.232z M53.772,27.406l-2.359-5.198c1.18,0.474,5.195,3.072,5.668,4.016
		L53.772,27.406z M25.903,26.224c0.828-0.826,1.654-1.534,2.6-2.244c0.708-0.472,2.124-1.416,3.068-1.771
		c-0.114,0.592-0.944,2.008-1.18,2.718c-0.354,0.59-0.944,1.772-1.18,2.598L25.903,26.224z M41.494,68.504
		c14.525,0.118,26.218-11.808,26.218-26.219C67.594,27.76,55.9,16.187,41.494,16.187c-14.409,0-26.22,11.691-26.22,26.217
		C15.273,56.814,27.085,68.504,41.494,68.504L41.494,68.504z"/>
</g>
</svg>
