<?xml version="1.0" encoding="utf-8"?>
<!-- Generator: Adobe Illustrator 16.0.0, SVG Export Plug-In . SVG Version: 6.00 Build 0)  -->
<!DOCTYPE svg PUBLIC "-//W3C//DTD SVG 1.1//EN" "http://www.w3.org/Graphics/SVG/1.1/DTD/svg11.dtd">
<svg version="1.1" id="Layer_1" xmlns="http://www.w3.org/2000/svg" xmlns:xlink="http://www.w3.org/1999/xlink" x="0px" y="0px"
	 width="82px" height="82px" viewBox="0 0 82 82" enable-background="new 0 0 82 82" xml:space="preserve">
<rect fill="none" width="82" height="82"/>
<g>
	<path fill-rule="evenodd" clip-rule="evenodd" fill="#F6412D" d="M51.324,63.718c1.533,0.235,2.596-0.236,3.071-1.298l0,0
		c0,0.118,0,0.118,0,0.118l0.236,0.354c0,0.236,0.118,0.472,0.118,0.59l2.713,8.148c-0.354-0.235-1.416-0.59-2.006-0.472
		c-0.707,0.354-0.825,1.062-1.18,1.416C54.155,72.456,51.442,64.308,51.324,63.718L51.324,63.718z M52.268,54.625
		c-2.717,2.836-7.559,0.944-7.559-2.953c0-4.129,5.077-5.903,7.677-2.949c0.472,0.59,0.944,1.533,1.062,2.359
		C53.565,52.502,53.212,53.682,52.268,54.625L52.268,54.625z M48.253,44.943c-1.888,0.235-3.189,0.825-4.369,2.359
		c-1.18,1.42-1.771,3.071-1.534,5.199c0.236,3.539,3.779,6.492,7.677,5.902c2.714-0.354,4.841-2.245,5.549-4.723
		c0.472-1.534,0.236-4.016-0.59-5.313C53.802,46.123,50.97,44.471,48.253,44.943L48.253,44.943z M61.007,18.256
		c0.235-0.71-0.236-1.418-0.944-1.536c-0.826-0.118-1.892,0-2.718,0H22.865c-0.828,0-1.536,0-1.772,0.826
		c-0.354,0.828,0.236,1.417,0.944,1.536c0.592,0.118,17.595,0,18.539,0h18.66C60.181,19.082,60.771,19.082,61.007,18.256
		L61.007,18.256z M11.765,30.89c0.236,1.3,1.534,1.063,2.715,1.063h53.377c0.708,0,2.596,0.236,2.478-1.3
		c-0.118-1.297-1.534-1.062-2.832-1.062H18.024c-0.828,0-5.079-0.118-5.669,0.118C12.001,29.828,11.647,30.3,11.765,30.89
		L11.765,30.89z M11.765,37.266c0.118,1.302,1.416,1.18,2.715,1.18H63.96c0.708,0,5.077,0.122,5.667-0.114
		c1.062-0.594,0.826-2.009-0.118-2.363c-0.354,0-1.416,0-1.888,0H18.024c-0.71,0-5.197-0.118-5.669,0.118
		C12.119,36.323,11.647,36.676,11.765,37.266L11.765,37.266z M11.765,24.515c0.236,1.298,1.652,1.062,2.715,1.062h53.495
		c0.59,0,1.18,0.118,1.77-0.236c0.354-0.118,0.59-0.59,0.59-1.182c-0.236-1.298-1.534-1.062-2.832-1.062c-1.302,0-2.481,0-3.779,0
		c-2.6,0-5.077,0-7.677,0h-41.92c-0.59,0-1.3-0.118-1.772,0.236C12.001,23.451,11.647,23.923,11.765,24.515L11.765,24.515z
		 M45.539,69.503c-0.357,0-0.476-1.063-1.184-1.298c-0.708-0.354-1.416,0.235-2.006,0.354l1.77-5.549h0.118
		c0,0.118,0.708,0.708,1.302,0.826c0.944,0.117,1.298-0.118,2.006-0.354C46.837,65.491,46.247,67.497,45.539,69.503L45.539,69.503z
		 M41.052,46.241c0.944-0.354,2.478-0.473,3.186-1.063s1.184-1.77,1.773-2.481c0.708,0,2.124,0.948,3.067,0.948
		c0.948,0,2.6-0.948,3.072-0.948c1.297,2.128,1.415,2.6,3.189,3.071c0.472,0.118,1.297,0.354,1.651,0.473
		c0.235,1.537-0.472,2.009,0.235,3.543c0.236,0.472,0.473,0.826,0.826,1.18c0.354,0.354,0.594,0.708,0.83,1.065
		c-0.236,0.473-1.302,1.534-1.656,2.124c-0.472,1.062-0.235,2.481-0.235,3.661c-4.369,1.063-3.071,1.416-4.841,3.662
		c-2.482-1.066-2.718-1.42-4.605-0.591c-0.354,0.118-1.18,0.473-1.534,0.473c-0.59-0.595-1.065-1.892-1.773-2.481
		c-0.826-0.708-2.241-0.59-3.186-1.063c0-2.717,0.826-2.481-0.947-4.604c-0.236-0.354-0.59-0.708-0.826-1.181
		c0.118-0.357,1.298-1.655,1.655-2.245C41.406,48.84,41.052,47.421,41.052,46.241L41.052,46.241z M43.176,42.461
		c-0.118,0.236-0.354,0.713-0.472,0.83c-0.118,0.118-0.826,0.236-0.944,0.236c-0.354,0.118-1.062,0.236-1.298,0.354
		c-1.773,0.59-1.773,1.888-1.773,3.422c0,1.892,0.235,1.184-0.708,2.481c-0.236,0.236-0.594,0.59-0.83,0.943
		c-0.236,0.473-0.236,0.708-0.35,1.181c-3.547,0-7.087,0-10.63,0c-3.659,0-7.203,0-10.746,0c-0.472,0-0.944,0-1.416,0
		c-0.592,0-0.472-0.118-0.828-0.473l-3.423-3.303c-1.653-1.656-1.417-1.185-1.417-2.718V18.492c0-0.59-0.118-0.59,0.236-1.064
		l4.723-4.605c0.474-0.472,0.356-0.354,1.064-0.354c16.889,0.118,33.772,0,52.901,0c0.712,0,1.065-0.118,1.419,0.236l3.662,3.543
		c0,0,0,0,0,0.118l0.117,0.118c0.944,1.18,1.298,0.826,1.298,1.89c0,0.944,0,2.008,0,3.07c0,8.03-0.117,16.417,0,24.562
		c0,0.943-0.117,0.708-1.18,1.892l-3.897,3.775c-0.354,0.357-0.707,0.236-1.302,0.236c-0.707,0-5.784,0.121-6.021-0.118
		c-0.118-0.118,0,0.118-0.118-0.118c-0.354-1.77-1.77-2.478-1.888-3.186c0-0.236,0-0.708,0-0.943
		c0.236-2.482-0.118-3.189-2.481-3.897c-0.354-0.118-1.298-0.236-1.533-0.472c-0.118-0.24-0.354-0.477-0.473-0.713
		c-0.117-0.235-0.235-0.354-0.354-0.59c-1.42-2.245-2.481-1.77-4.369-1.062c-0.712,0.236-0.83,0.472-1.538,0.236
		c-1.298-0.472-3.308-1.534-4.605,0.235C43.884,41.518,43.294,42.461,43.176,42.461L43.176,42.461z M78.602,8.925v2.835v18.185
		v2.244v24.563H59.473c-0.118-1.892-0.236-1.184,0.708-2.363c1.18,0,8.856,0,9.328-0.118c0.354-0.236,5.195-5.077,5.903-5.785
		c0.472-0.472,0.708-0.708,0.708-1.538c0.117-4.487-0.118-9.446,0-13.815v-2.952c0.117-4.015,0-8.385,0-12.518
		c0-1.18-0.354-1.298-1.534-2.48c-1.416-1.416-2.718-2.833-4.133-4.133c-0.236-0.354-0.708-0.826-1.181-0.943
		c-0.472-0.118-27.631,0-30.938,0c-6.139,0-8.738,0-14.879,0h-9.328c-1.536,0-1.418-0.118-2.362,0.826l-4.723,4.725
		c-0.592,0.59-1.182,0.826-1.182,1.888v28.223c0,1.298-0.118,1.652,0.59,2.481c1.063,1.063,2.125,2.124,3.189,3.067
		c0.472,0.591,0.944,1.066,1.534,1.656c0.474,0.354,1.064,1.298,1.771,1.298c0.592,0.118,24.328,0.118,25.036,0.118
		c1.062,1.415,0.826,0.59,0.708,2.363c-5.785,0-11.69,0-17.595,0H3.499V7.627h22.2c7.318,0,9.446,0,17.712,0
		c11.692,0,23.498,0.118,35.19,0V8.925z M7.042,5.266c-5.433,0-6.023-0.59-6.023,2.008v7.91c0,1.772,0,20.073,0.118,21.256
		l0.59,0.236c-0.472,0.236-0.59,0.236-0.708,0.236c0,3.662,0.118,7.323,0,10.866c0,1.888,0,3.657,0,5.432
		c0,0.943-0.118,4.723,0.236,5.313c0.354,0.708,1.182,0.708,2.008,0.708s1.771,0,2.715,0c18.421,0,14.408,0,33.064,0
		c0.118,0,0.473,0.708,1.42,0.943c0.59,0.236,1.18,0.354,1.77,0.473c0.118,0.357-2.005,6.614-2.363,7.559
		c-0.472,1.42-1.18,2.835-0.118,3.543c0.948,0.59,2.718-0.708,3.661-0.943c0.118,0.354,1.416,2.359,1.652,2.595
		c0.357,0.354,1.065,0.473,1.537,0c0.473-0.235,0.473-0.825,0.708-1.415l2.006-6.257c0.236,0.118,0.236,0.235,0.236,0.472
		c0.117,0.236,0.117,0.354,0.117,0.472l2.364,6.965c0.235,0.948,0.59,2.481,1.062,2.836c1.538,1.18,2.363-1.18,3.308-2.6
		c0.708,0.357,1.533,0.594,2.123,0.83c0.948,0.472,1.656,0.354,2.01-0.473c0.236-0.712-0.235-1.773-0.472-2.363
		c-0.236-0.826-0.472-1.534-0.708-2.241c-0.235-0.83-0.59-1.538-0.83-2.364c-0.117-0.354-0.117-0.708-0.354-1.062l-1.416-4.487
		c-0.118-0.354-0.354-0.948-0.354-1.184c0.943-0.354,1.888-0.236,2.6-1.298c0.59-0.118,1.77,0,2.478,0c10.512,0,6.497,0,16.887,0
		c1.416,0,2.6,0.236,2.6-1.534c0-16.532,0-33.063,0-49.597c0-1.418,0.354-2.833-1.184-2.833c-2.714-0.118-5.667,0-8.385,0
		C50.026,5.266,27.588,5.266,7.042,5.266L7.042,5.266z"/>
</g>
</svg>
