<?xml version="1.0" encoding="utf-8"?>
<!-- Generator: Adobe Illustrator 16.0.0, SVG Export Plug-In . SVG Version: 6.00 Build 0)  -->
<!DOCTYPE svg PUBLIC "-//W3C//DTD SVG 1.1//EN" "http://www.w3.org/Graphics/SVG/1.1/DTD/svg11.dtd">
<svg version="1.1" id="Layer_1" xmlns="http://www.w3.org/2000/svg" xmlns:xlink="http://www.w3.org/1999/xlink" x="0px" y="0px"
	 width="82px" height="82px" viewBox="0 0 82 82" enable-background="new 0 0 82 82" xml:space="preserve">
<path fill-rule="evenodd" clip-rule="evenodd" fill="#B3C213" d="M43.366,40.057c1.889-2.955,4.489-7.681,6.261-10.28
	c0.354-0.472,0.944-1.773,1.534-1.891c0.354,0.472,1.774,2.953,2.129,3.664c0.944,1.534,5.788,9.806,6.261,10.869
	c-0.473,0.472-3.191,3.191-3.546,3.309c-0.826-0.708-1.652-1.652-2.597-2.36c-1.539-1.303-1.657-0.713-4.018,2.125
	c-0.354,0.472-0.708,0.826-1.181,1.298l-2.129,2.72c-0.354-0.118-4.962-4.608-5.198-5.198L43.366,40.057z M16.897,75.976
	c0.472-0.236,3.31-3.31,3.899-3.899c0.236-0.236,0.354-0.236,0.59-0.473l10.871-10.872c0.354,0.118,2.599,2.482,3.189,3.073
	l1.772,1.774c0.472,0.473,0.829,0.826,1.301,1.299c1.181,1.063,1.655,1.889,2.835,1.889l5.434,0.118l7.091,7.091
	c0.236-0.236,1.535-1.535,1.653-1.771c-0.236-0.358-1.889-2.011-2.361-2.483c-0.826-0.826-1.656-1.652-2.482-2.483
	c-3.31-3.305-2.598-2.833-6.733-2.833c-2.247,0-2.129,0.236-3.073-0.59c-2.127-2.247-4.49-4.727-6.735-6.737
	c-1.891-1.889-2.009-1.889-3.899,0.118l-8.39,8.271c-2.009,2.125-4.726,4.608-6.617,6.737C15.479,74.44,16.543,75.621,16.897,75.976
	L16.897,75.976z M1.301,74.44c0.354,0.354,1.418,1.063,2.009,1.299l2.835-4.489c0.946-1.535,1.891-2.956,2.835-4.49
	c0.947-1.417,1.891-2.955,2.837-4.49c2.245-3.427,4.844-7.563,7.089-11.108c0.944-1.534,6.853-10.868,7.207-11.104
	c0.71,0.59,4.844,6.261,5.082,6.851c0.708-0.118,1.299-0.826,1.889-1.181c-0.118-0.708-5.906-8.861-6.734-9.215
	c-0.236-0.118-0.708-0.118-0.944,0.118l-8.744,13.469c-0.236,0.473-0.59,0.944-0.944,1.535c-0.238,0.476-0.592,0.948-0.946,1.538
	L8.979,62.27c-1.298,2.007-2.481,4.018-3.779,6.024C4.372,69.475,1.772,73.61,1.301,74.44L1.301,74.44z M1.064,80.701h79.991v-1.771
	H1.064V80.701z M16.661,13.115L16.661,13.115 M11.227,12.643c-1.3,0.118-2.247,0.947-2.601,2.009
	c-0.354,1.773,0.236,2.835-1.535,2.954c-1.537,0.118-2.245,0.71-2.955,1.537c-1.298,1.772-0.59,5.318,2.009,5.79
	c1.891,0.354,16.779,0.354,17.723-0.118c2.956-1.301,2.956-5.672,0-6.971c-0.826-0.356-1.18-0.12-2.009-0.356
	c-1.063-0.236-1.063-1.653-2.245-2.245c-1.535-0.708-2.245,0.592-3.189,0.946C14.18,17.015,15.242,12.171,11.227,12.643
	L11.227,12.643z M57.426,1.418h-2.365c-0.235,0-2.833,0.236-3.545,0.354c-3.188,0.59-6.024,1.891-8.744,3.546
	c-3.307,2.009-6.024,4.844-8.151,8.271c-4.136,6.853-4.726,15.478-1.298,23.04c0.236,0.59,1.063,2.245,1.417,2.717
	c0.708-0.118,1.419-0.708,2.009-1.063c-0.236-1.891-3.664-4.726-3.071-13.469c0.472-8.744,5.907-16.189,13.822-19.378
	c2.129-0.826,4.253-1.418,6.736-1.537c2.837-0.118,4.962,0,7.563,0.59c8.39,2.245,14.414,8.744,16.303,17.015
	c0.476,2.127,0.476,5.437,0.236,7.799c-0.236,2.363-0.945,4.49-1.771,6.499c-1.18,2.835-4.371,6.615-6.973,8.508
	c-0.236,0.236-0.354,0.354-0.59,0.59c0.235,0.354,0.948,1.535,1.302,1.771c1.299-0.472,4.372-3.663,5.198-4.726
	c1.299-1.535,2.716-4.016,3.664-6.261c2.479-6.617,2.479-13.826-0.83-20.442c-2.361-4.372-5.316-7.679-9.57-10.278
	C63.096,1.418,58.134,1.655,57.426,1.418L57.426,1.418z M32.611,53.172l0.236,0.236c0.354,0.236,1.3,0.944,1.772,0.944
	c0.947-1.417,4.136-7.091,4.844-7.682c0.354,0.236,1.301,1.185,1.655,1.539c0.59,0.59,1.063,1.063,1.652,1.535
	c2.838,2.837,3.073,3.899,5.202,1.18l4.254-5.08l2.125,1.894c1.181,1.062,1.534,1.416,2.483,0.708
	c1.18-0.826,3.659-3.664,4.014-3.782c0.239,0.354,0.83,1.417,1.185,1.89l5.552,9.806c0.708,1.303,1.417,2.483,2.247,3.899
	c2.243,3.782,4.49,7.8,6.614,11.581l2.247,3.781c0.709-0.235,1.535-0.708,2.007-1.181c-0.118-0.476-1.18-2.011-1.416-2.601
	l-4.372-7.563c-2.011-3.427-3.899-6.851-5.792-10.278c-3.9-6.5-7.796-13.823-11.813-20.204c-1.421-2.481-2.955-5.2-4.372-7.563
	c-0.948-1.535-1.656-3.425-2.955-1.535c-1.416,2.245-4.018,6.38-5.316,8.625C43.366,35.329,32.729,52.7,32.611,53.172L32.611,53.172
	z"/>
<rect fill="none" width="82" height="82"/>
</svg>
