<?xml version="1.0" encoding="utf-8"?>
<!-- Generator: Adobe Illustrator 16.0.0, SVG Export Plug-In . SVG Version: 6.00 Build 0)  -->
<!DOCTYPE svg PUBLIC "-//W3C//DTD SVG 1.1//EN" "http://www.w3.org/Graphics/SVG/1.1/DTD/svg11.dtd">
<svg version="1.1" id="Layer_1" xmlns="http://www.w3.org/2000/svg" xmlns:xlink="http://www.w3.org/1999/xlink" x="0px" y="0px"
	 width="82px" height="82px" viewBox="0 0 82 82" enable-background="new 0 0 82 82" xml:space="preserve">
<rect fill="none" width="82" height="82"/>
<g>
	<path fill-rule="evenodd" clip-rule="evenodd" fill="#38AFAB" d="M74.694,57.943c1.062,0.825,1.416,2.953,1.773,4.369
		c0.354,0.708,0.472,2.124,0.59,2.954c0.236,1.298,0.354,2.36-0.947,2.596c-0.826,0.118-2.832,0.118-3.422-0.354
		C71.386,66.329,73.75,59.123,74.694,57.943L74.694,57.943z M40.562,49.794c3.308-0.708,3.898,4.251,1.066,4.841
		C38.32,55.343,37.258,50.501,40.562,49.794L40.562,49.794z M39.735,47.43c-6.257,1.656-3.894,11.339,2.601,9.688
		C48.594,55.461,46.233,45.66,39.735,47.43L39.735,47.43z M36.664,22.867c1.066-1.536,7.678-1.654,8.621,0
		C43.987,24.401,37.848,24.521,36.664,22.867L36.664,22.867z M40.09,19.205c-9.094,0.472-7.324,8.149,1.892,7.441
		C50.957,25.937,49.301,18.615,40.09,19.205L40.09,19.205z M32.888,72.351c-1.066-4.96-1.538-2.954-4.726-3.19
		c1.182-1.651,3.31-4.369,4.132-5.903c0-0.118-2.006-0.944-2.124-1.062c-0.826,0.825-1.416,2.006-2.244,2.949
		c-0.708,0.948-1.418,2.01-2.126,3.072c-0.708,0.943-1.772,2.246-0.236,3.308c0.944,0.708,3.308,0.118,4.606,0
		c0.236,1.534,0.354,3.897,1.774,4.37c0.944,0.354,1.652-0.236,2.006-0.708l3.897-5.432c0.473-0.595,0.944-1.185,1.298-1.774
		c0.473-0.59,0.944-1.18,1.303-1.888c-1.303,0.354-1.774,0.59-3.426,0.472C36.786,67.154,33.478,71.761,32.888,72.351L32.888,72.351
		z M49.655,63.257c0.594,0.944,3.544,4.724,4.134,5.903c-1.062-0.117-2.714-0.472-3.54,0.236c-0.476,0.24-0.594,0.712-0.712,1.302
		l-0.236,1.18c-0.235,0.708,0.236-0.472-0.117,0.236l-0.118,0.236c-0.826-1.416-3.78-5.078-4.016-5.786
		c-1.889,0.118-2.124-0.235-3.54-0.354l5.195,7.083c1.063,1.42,1.652,3.072,3.309,2.601c1.533-0.354,1.651-2.836,1.888-4.37
		c1.298,0.118,3.661,0.59,4.605,0c2.006-1.298-0.472-3.662-2.364-6.38c-0.354-0.59-0.708-0.943-1.062-1.534
		c-0.354-0.354-0.708-1.062-1.062-1.415C51.665,62.313,50.014,63.021,49.655,63.257L49.655,63.257z M28.162,59.595
		c-0.236-0.943-0.354-1.533-0.354-2.596c-2.48-0.472-5.314-1.42-7.914-2.128c-5.078-1.298-4.37-0.118-4.487-5.55l10.629,2.718
		c0.118-1.184,0.354-1.42,0.59-2.481l-11.219-2.836v-14.29l-2.48-0.826c0.118,3.544,0,7.319,0,10.863v10.75
		c0.354,3.189,3.543,3.426,6.614,4.251c1.417,0.354,2.718,0.708,4.251,1.063C24.975,58.887,26.864,59.477,28.162,59.595
		L28.162,59.595z M66.662,32.432v14.29c-1.888,0.83-10.037,2.364-11.217,3.072c0.235,0.825,0.472,1.18,0.59,2.363l10.627-2.836
		c-0.118,5.432,0.59,4.37-4.487,5.668c-2.36,0.59-5.55,1.656-8.032,2.01c0.122,1.18,0,1.534-0.235,2.596
		c2.6-0.354,6.025-1.416,8.739-2.124c2.954-0.708,6.144-1.062,6.498-4.251c0.235-3.072-0.118-17.007,0-21.613L66.662,32.432z
		 M37.73,42.941c1.297,0,2.005,0.713,3.308,0.713c1.298,0,2.006-0.713,3.186-0.713c0.472,0.595,1.184,1.774,1.892,2.364
		c1.063,0.708,2.714,0.708,3.068,1.298c0.235,1.066-0.236,2.128,0.354,3.308c0.236,0.708,1.42,1.889,1.42,2.246
		c0,0.472-1.184,1.771-1.42,2.242c-0.472,1.062-0.354,2.246-0.354,3.544c-0.708,0.59-2.124,0.59-2.95,1.18
		c-0.948,0.708-1.42,1.651-2.01,2.481c-1.18-0.117-1.888-0.708-3.186-0.708c-1.303,0-2.011,0.591-3.19,0.708
		c-0.59-0.59-0.948-1.655-1.77-2.245c-0.948-0.826-2.01-0.708-2.84-1.181c-0.822-0.472,0-1.77-0.586-3.426
		c-0.358-0.825-1.538-2.006-1.538-2.478c-0.118-0.476,1.18-1.656,1.416-2.364c0.594-1.062,0.122-3.189,0.594-3.544
		c0.236-0.235,1.18-0.354,1.416-0.472c0.59-0.235,1.18-0.472,1.538-0.708C36.664,44.716,37.372,43.536,37.73,42.941L37.73,42.941z
		 M37.372,40.464c-2.124,0.59-2.124,2.478-3.422,2.954c-1.656,0.708-3.19,0.708-3.544,2.714c-0.118,0.826,0.118,2.128-0.236,2.836
		c-0.354,0.943-2.362,2.241-1.298,4.487c0.354,0.944,0.826,1.18,1.298,1.888c0.826,1.538-0.708,3.19,1.416,4.725
		c0.708,0.59,1.416,0.59,2.246,0.947c0.944,0.354,1.18,0.944,1.652,1.652c0.944,1.298,2.246,1.77,4.251,1.062
		c2.601-0.943,2.954,0.826,5.078,0.236c1.892-0.472,2.01-2.478,3.308-2.95c1.652-0.594,3.19-0.712,3.544-2.718
		c0.118-0.826-0.236-2.01,0.118-2.718c0.472-0.944,2.481-2.359,1.416-4.605c-0.354-0.826-0.826-1.18-1.298-1.771
		c-0.826-1.415,0.708-3.308-1.416-4.842c-0.59-0.472-1.42-0.59-2.246-0.943c-2.006-0.712-1.77-4.134-5.903-2.718
		C39.735,41.644,39.5,39.874,37.372,40.464L37.372,40.464z M3.716,22.985c2.833-0.828,6.377-2.48,9.329-3.544
		c3.19-1.298,6.142-2.48,9.332-3.66c2.006-0.828,17.95-7.206,18.662-7.206c0.708,0,16.648,6.377,18.658,7.206
		c6.14,2.48,12.638,4.724,18.659,7.322l-9.211,3.188c-4.37,1.3-26.927,9.686-28.106,9.686c-0.712,0-16.656-5.669-18.662-6.377
		C20.133,28.891,4.306,23.457,3.716,22.985L3.716,22.985z M73.396,27.473c0.235,1.298,0.117,3.306,0.117,4.724
		c0,2.954,0.118,22.911-0.117,23.383c-0.236,0.708-1.656,0.83-2.954,6.38c-1.063,4.842-1.416,8.386,4.252,8.386
		c1.773,0,2.718,0.118,3.779-0.948c2.006-1.888,1.18-4.605,0.59-7.438c-1.18-5.313-2.836-5.908-3.071-6.262V26.646
		c1.655-0.71,3.897-0.946,4.605-2.246c0.594-0.826,0.476-2.006,0-2.834c-0.472-0.59-1.298-0.826-2.242-1.18
		c-6.375-2.48-13.581-5.552-19.843-7.796L43.516,6.686c-2.718-1.062-2.832-0.826-5.432,0.238L3.362,20.505
		C1,21.449,0.41,23.103,1.59,24.639c0.708,0.944,3.19,1.534,4.724,2.008l30.822,10.746c1.892,0.712,3.426,1.534,5.554,0.826
		c3.426-1.298,6.729-2.478,10.273-3.662c3.426-1.058,6.733-2.36,10.16-3.54C66.544,29.953,70.206,28.535,73.396,27.473
		L73.396,27.473z"/>
</g>
</svg>
